<svg width="14.00cm" height="12.00cm" viewBox="0 0 700 564" xmlns="http://www.w3.org/2000/svg" version="1.1">
  undefined
  undefined
  undefined
  undefined
  undefined
  undefined
  undefined
  undefined
  undefined
  undefined
  undefined
  undefined
  undefined
  undefined
  undefined
  undefined
  undefined
  undefined
  undefined
  undefined
  undefined
  undefined
  undefined
  undefined
  undefined
  undefined
  undefined
  undefined
  undefined
  undefined
  undefined
  undefined
  undefined
  undefined
  undefined
  undefined
  undefined
  undefined
  undefined
  undefined
  undefined
  <g stroke-linecap="round" stroke-linejoin="round">
    <path d="M 144.00 80.00 L 146.00 80.00 M 153.00 80.00 L 155.00 80.00 M 160.00 80.00 M 159.98 82.00 L 159.96 84.00 M 159.88 91.00 L 159.85 93.00 M 159.78 100.00 L 159.75 102.00 M 159.68 109.00 L 159.65 111.00 M 159.58 118.00 L 159.55 120.00 M 159.50 124.85 M 154.55 119.80 L 159.50 124.85 L 164.55 119.91" stroke="#008000" stroke-width="1.4" fill="none"/>
    <g>
      <text x="159.82" y="74.50" style="font-size:14px;font-style:normal;font-weight:normal;text-align:center;text-anchor:middle;fill:#ffffff;fill-opacity:1;stroke:none;stroke-width:1px;stroke-linecap:butt;stroke-linejoin:miter;stroke-opacity:1;font-family:Bitstream Vera Sans">+0.1</text>
    </g>
    <g>
      <text x="159.82" y="74.50" style="font-size:14px;font-style:normal;font-weight:normal;text-align:center;text-anchor:middle;fill:#008000;fill-opacity:1;stroke:none;stroke-width:1px;stroke-linecap:butt;stroke-linejoin:miter;stroke-opacity:1;font-family:Bitstream Vera Sans">+0.1</text>
    </g>
    <path d="M 64.00 80.00 L 96.00 80.00 M 91.00 85.00 L 96.00 80.00 L 91.00 75.00" stroke="#008000" stroke-width="1.4" fill="none"/>
    <g>
      <text x="72.00" y="94.50" style="font-size:14px;font-style:normal;font-weight:normal;text-align:center;text-anchor:middle;fill:#ffffff;fill-opacity:1;stroke:none;stroke-width:1px;stroke-linecap:butt;stroke-linejoin:miter;stroke-opacity:1;font-family:Bitstream Vera Sans">0.1</text>
    </g>
    <g>
      <text x="72.00" y="94.50" style="font-size:14px;font-style:normal;font-weight:normal;text-align:center;text-anchor:middle;fill:#008000;fill-opacity:1;stroke:none;stroke-width:1px;stroke-linecap:butt;stroke-linejoin:miter;stroke-opacity:1;font-family:Bitstream Vera Sans">0.1</text>
    </g>
    <path d="M 465.00 302.15 L 458.30 304.17 M 461.26 300.14 L 465.00 302.15 L 462.99 305.88 M 126.98 404.07 L 133.68 402.05 M 131.67 405.79 L 133.68 402.05 L 129.94 400.04" stroke="#8b0000" stroke-width="1.4" fill="none"/>
    <path d="M 21.37 92.42 L 58.63 92.42 L 40.00 61.37 L 21.37 92.42" stroke="#008000" stroke-width="1.4" fill="#ffffff"/>
    <g>
      <text x="54.00" y="80.00" style="font-size:27px;font-style:normal;font-weight:normal;text-align:center;text-anchor:middle;fill:#008000;fill-opacity:1;stroke:none;stroke-width:1px;stroke-linecap:butt;stroke-linejoin:miter;stroke-opacity:1;font-family:Bitstream Vera Sans">*</text>
    </g>
    <path d="M 106.43 99.80 L 105.30 101.45 M 101.34 107.22 L 100.21 108.87 M 96.26 114.64 L 95.12 116.29 M 91.17 122.07 L 90.04 123.72 M 86.08 129.49 L 84.95 131.14 M 80.99 136.91 L 79.86 138.56 M 75.90 144.34 L 74.77 145.99 M 70.81 151.76 L 69.68 153.41 M 67.91 156.00 M 66.61 149.05 L 67.91 156.00 L 74.86 154.70" stroke="#008000" stroke-width="1.4" fill="none"/>
    <g>
      <text x="78.92" y="126.74" style="font-size:14px;font-style:normal;font-weight:normal;text-align:right;text-anchor:end;fill:#ffffff;fill-opacity:1;stroke:none;stroke-width:1px;stroke-linecap:butt;stroke-linejoin:miter;stroke-opacity:1;font-family:Bitstream Vera Sans">&gt;4</text>
    </g>
    <g>
      <text x="78.92" y="126.74" style="font-size:14px;font-style:normal;font-weight:normal;text-align:right;text-anchor:end;fill:#008000;fill-opacity:1;stroke:none;stroke-width:1px;stroke-linecap:butt;stroke-linejoin:miter;stroke-opacity:1;font-family:Bitstream Vera Sans">&gt;4</text>
    </g>
    <path d="M 281.46 168.99 L 277.54 344.01 M 272.65 338.90 L 277.54 344.01 L 282.65 339.12" stroke="#008000" stroke-width="1.4" fill="none"/>
    <g>
      <text x="267.54" y="348.28" style="font-size:14px;font-style:normal;font-weight:normal;text-align:right;text-anchor:end;fill:#ffffff;fill-opacity:1;stroke:none;stroke-width:1px;stroke-linecap:butt;stroke-linejoin:miter;stroke-opacity:1;font-family:Bitstream Vera Sans">1</text>
    </g>
    <g>
      <text x="267.54" y="348.28" style="font-size:14px;font-style:normal;font-weight:normal;text-align:right;text-anchor:end;fill:#008000;fill-opacity:1;stroke:none;stroke-width:1px;stroke-linecap:butt;stroke-linejoin:miter;stroke-opacity:1;font-family:Bitstream Vera Sans">1</text>
    </g>
    <path d="M 225.00 145.00 L 258.00 145.00 M 253.00 150.00 L 258.00 145.00 L 253.00 140.00" stroke="#008000" stroke-width="1.4" fill="none"/>
    <path d="M 205.77 424.00 L 205.23 481.00 M 200.28 475.95 L 205.23 481.00 L 210.28 476.05" stroke="#ce0000" stroke-width="1.4" fill="none"/>
    <g>
      <text x="195.23" y="485.41" style="font-size:14px;font-style:normal;font-weight:normal;text-align:right;text-anchor:end;fill:#ffffff;fill-opacity:1;stroke:none;stroke-width:1px;stroke-linecap:butt;stroke-linejoin:miter;stroke-opacity:1;font-family:Bitstream Vera Sans">1</text>
    </g>
    <g>
      <text x="195.23" y="485.41" style="font-size:14px;font-style:normal;font-weight:normal;text-align:right;text-anchor:end;fill:#ce0000;fill-opacity:1;stroke:none;stroke-width:1px;stroke-linecap:butt;stroke-linejoin:miter;stroke-opacity:1;font-family:Bitstream Vera Sans">1</text>
    </g>
    <path d="M 142.00 145.71 L 177.00 145.29 M 172.06 150.35 L 177.00 145.29 L 171.94 140.35" stroke="#008000" stroke-width="1.4" fill="none"/>
    <g>
      <text x="159.38" y="140.00" style="font-size:14px;font-style:normal;font-weight:normal;text-align:center;text-anchor:middle;fill:#ffffff;fill-opacity:1;stroke:none;stroke-width:1px;stroke-linecap:butt;stroke-linejoin:miter;stroke-opacity:1;font-family:Bitstream Vera Sans">0.5</text>
    </g>
    <g>
      <text x="159.38" y="140.00" style="font-size:14px;font-style:normal;font-weight:normal;text-align:center;text-anchor:middle;fill:#008000;fill-opacity:1;stroke:none;stroke-width:1px;stroke-linecap:butt;stroke-linejoin:miter;stroke-opacity:1;font-family:Bitstream Vera Sans">0.5</text>
    </g>
    <path d="M 99.37 158.42 L 136.63 158.42 L 118.00 127.37 L 99.37 158.42" stroke="#008000" stroke-width="1.4" fill="#ffffff"/>
    <g>
      <text x="132.00" y="146.00" style="font-size:27px;font-style:normal;font-weight:normal;text-align:center;text-anchor:middle;fill:#008000;fill-opacity:1;stroke:none;stroke-width:1px;stroke-linecap:butt;stroke-linejoin:miter;stroke-opacity:1;font-family:Bitstream Vera Sans">*</text>
    </g>
    <path d="M 265.10 40.00 L 280.00 54.90 L 294.90 40.00 L 280.00 25.10 L 265.10 40.00" stroke="#008000" stroke-width="1.4" fill="#ffffff"/>
    <g>
      <text x="294.40" y="31.80" style="font-size:15px;font-style:normal;font-weight:normal;text-align:center;text-anchor:middle;fill:#008000;fill-opacity:1;stroke:none;stroke-width:1px;stroke-linecap:butt;stroke-linejoin:miter;stroke-opacity:1;font-family:Bitstream Vera Sans">s</text>
    </g>
    <path d="M 274.88 42.25 L 274.88 45.73 L 285.12 45.73 L 285.12 42.25 L 281.69 42.25 L 281.38 36.47 S 282.87 35.55 282.05 33.75 S 279.10 32.81 278.21 33.80 S 278.13 35.96 278.82 36.47 L 278.41 42.25 L 277.44 42.25 L 277.44 41.48 L 275.70 41.48 L 275.65 42.25" fill="#008000"/>
    <path d="M 280.38 60.00 L 280.42 62.00 M 280.55 68.99 L 280.59 70.99 M 280.72 77.99 L 280.76 79.99 M 280.90 86.99 L 280.93 88.99 M 281.07 95.99 L 281.10 97.99 M 281.24 104.99 L 281.28 106.99 M 281.41 113.99 L 281.45 115.99 M 281.54 121.00 M 276.45 116.10 L 281.54 121.00 L 286.45 115.91" stroke="#008000" stroke-width="1.4" fill="none"/>
    <g>
      <text x="270.73" y="82.99" style="font-size:14px;font-style:normal;font-weight:normal;text-align:right;text-anchor:end;fill:#ffffff;fill-opacity:1;stroke:none;stroke-width:1px;stroke-linecap:butt;stroke-linejoin:miter;stroke-opacity:1;font-family:Bitstream Vera Sans">100%</text>
    </g>
    <g>
      <text x="270.73" y="82.99" style="font-size:14px;font-style:normal;font-weight:normal;text-align:right;text-anchor:end;fill:#008000;fill-opacity:1;stroke:none;stroke-width:1px;stroke-linecap:butt;stroke-linejoin:miter;stroke-opacity:1;font-family:Bitstream Vera Sans">100%</text>
    </g>
    <path d="M 54.99 255.46 L 56.99 255.40 M 63.99 255.20 L 65.99 255.14 M 72.98 254.94 L 74.98 254.89 M 81.98 254.69 L 82.01 254.69 M 77.15 259.83 L 82.01 254.69 L 76.87 249.83" stroke="#8b0000" stroke-width="1.4" fill="none"/>
    <g>
      <text x="63.38" y="269.72" style="font-size:14px;font-style:normal;font-weight:normal;text-align:center;text-anchor:middle;fill:#ffffff;fill-opacity:1;stroke:none;stroke-width:1px;stroke-linecap:butt;stroke-linejoin:miter;stroke-opacity:1;font-family:Bitstream Vera Sans">70%</text>
    </g>
    <g>
      <text x="63.38" y="269.72" style="font-size:14px;font-style:normal;font-weight:normal;text-align:center;text-anchor:middle;fill:#8b0000;fill-opacity:1;stroke:none;stroke-width:1px;stroke-linecap:butt;stroke-linejoin:miter;stroke-opacity:1;font-family:Bitstream Vera Sans">70%</text>
    </g>
    <path d="M 200.63 121.00 L 200.60 119.00 M 200.49 112.00 L 200.46 110.00 M 200.35 103.00 L 200.32 101.01 M 200.22 94.01 L 200.18 92.01 M 200.08 85.01 L 200.05 83.01 M 200.00 80.00 M 203.99 79.89 L 205.99 79.84 M 212.99 79.65 L 214.99 79.60 M 221.98 79.41 L 223.98 79.36 M 230.98 79.17 L 232.98 79.12 M 239.73 78.94 M 234.87 84.07 L 239.73 78.94 L 234.60 74.08" stroke="#008000" stroke-width="1.4" fill="none"/>
    <g>
      <text x="210.40" y="74.22" style="font-size:14px;font-style:normal;font-weight:normal;text-align:center;text-anchor:middle;fill:#ffffff;fill-opacity:1;stroke:none;stroke-width:1px;stroke-linecap:butt;stroke-linejoin:miter;stroke-opacity:1;font-family:Bitstream Vera Sans">-30%</text>
    </g>
    <g>
      <text x="210.40" y="74.22" style="font-size:14px;font-style:normal;font-weight:normal;text-align:center;text-anchor:middle;fill:#008000;fill-opacity:1;stroke:none;stroke-width:1px;stroke-linecap:butt;stroke-linejoin:miter;stroke-opacity:1;font-family:Bitstream Vera Sans">-30%</text>
    </g>
    <path d="M 285.60 390.41 L 286.32 392.27 M 288.83 398.81 L 289.54 400.67 M 292.05 407.21 L 292.77 409.08 M 295.28 415.61 L 296.00 417.48 M 298.51 424.01 L 299.22 425.88 M 301.73 432.42 L 302.45 434.28 M 304.96 440.82 L 305.67 442.68 M 308.18 449.22 L 308.90 451.09 M 311.41 457.62 L 312.13 459.49 M 314.63 466.02 L 315.35 467.89 M 317.86 474.43 L 318.58 476.29 M 320.00 480.00 M 322.98 480.52 L 324.95 480.87 M 331.85 482.08 L 333.82 482.43 M 340.71 483.64 L 342.68 483.98 M 349.58 485.20 L 351.55 485.54 M 358.44 486.75 L 360.41 487.10 M 367.30 488.31 L 369.27 488.66 M 370.36 488.85 M 364.57 492.91 L 370.36 488.85 L 366.30 483.06" stroke="#008000" stroke-width="1.4" fill="none"/>
    <g>
      <text x="298.94" y="457.54" style="font-size:14px;font-style:normal;font-weight:normal;text-align:right;text-anchor:end;fill:#ffffff;fill-opacity:1;stroke:none;stroke-width:1px;stroke-linecap:butt;stroke-linejoin:miter;stroke-opacity:1;font-family:Bitstream Vera Sans">+0.5/3</text>
    </g>
    <g>
      <text x="298.94" y="457.54" style="font-size:14px;font-style:normal;font-weight:normal;text-align:right;text-anchor:end;fill:#008000;fill-opacity:1;stroke:none;stroke-width:1px;stroke-linecap:butt;stroke-linejoin:miter;stroke-opacity:1;font-family:Bitstream Vera Sans">+0.5/3</text>
    </g>
    <path d="M 204.58 352.99 L 204.64 354.99 M 204.85 361.99 L 204.91 363.99 M 205.12 370.98 L 205.18 372.98 M 205.27 376.01 M 200.12 371.16 L 205.27 376.01 L 210.12 370.86" stroke="#8b0000" stroke-width="1.4" fill="none"/>
    <g>
      <text x="194.79" y="364.70" style="font-size:14px;font-style:normal;font-weight:normal;text-align:right;text-anchor:end;fill:#ffffff;fill-opacity:1;stroke:none;stroke-width:1px;stroke-linecap:butt;stroke-linejoin:miter;stroke-opacity:1;font-family:Bitstream Vera Sans">70%</text>
    </g>
    <g>
      <text x="194.79" y="364.70" style="font-size:14px;font-style:normal;font-weight:normal;text-align:right;text-anchor:end;fill:#8b0000;fill-opacity:1;stroke:none;stroke-width:1px;stroke-linecap:butt;stroke-linejoin:miter;stroke-opacity:1;font-family:Bitstream Vera Sans">70%</text>
    </g>
    <path d="M 21.10 256.00 L 36.00 270.90 L 50.90 256.00 L 36.00 241.10 L 21.10 256.00" stroke="#8b0000" stroke-width="0.7" fill="#ffffff"/>
    <g>
      <text x="50.40" y="258.80" style="font-size:27px;font-style:normal;font-weight:normal;text-align:center;text-anchor:middle;fill:#8b0000;fill-opacity:1;stroke:none;stroke-width:1px;stroke-linecap:butt;stroke-linejoin:miter;stroke-opacity:1;font-family:Bitstream Vera Sans">*</text>
    </g>
    <path d="M 30.88 258.25 L 30.88 261.73 L 41.12 261.73 L 41.12 258.25 L 37.69 258.25 L 37.38 252.47 S 38.87 251.55 38.05 249.75 S 35.10 248.81 34.21 249.80 S 34.13 251.96 34.82 252.47 L 34.41 258.25 L 33.44 258.25 L 33.44 257.48 L 31.70 257.48 L 31.65 258.25" fill="#8b0000"/>
    <path d="M 93.58 272.63 L 93.58 235.37 L 124.63 254.00 L 93.58 272.63 M 106.00 235.37 L 106.00 272.63" stroke="#8b0000" stroke-width="1.4" fill="#ffffff"/>
    <path d="M 98.55 265.18 L 98.55 242.82 L 117.18 254.00 L 98.55 265.18 M 106.00 242.82 L 106.00 265.18" stroke="#8b0000" stroke-width="1.4" fill="#ffffff"/>
    <path d="M 255.12 377.86 L 227.88 390.14 M 230.38 383.53 L 227.88 390.14 L 234.49 392.64" stroke="#8b0000" stroke-width="1.4" fill="none"/>
    <path d="M 185.23 163.09 L 121.77 235.91 M 121.28 228.85 L 121.77 235.91 L 128.82 235.42" stroke="#8b0000" stroke-width="1.4" fill="none"/>
    <path d="M 300.98 369.03 L 369.02 371.97 M 363.81 376.75 L 369.02 371.97 L 364.24 366.76" stroke="#0000ff" stroke-width="1.4" fill="none"/>
    <path d="M 393.00 244.00 L 393.00 246.00 M 393.00 253.00 L 393.00 255.00 M 393.00 262.00 L 393.00 264.00 M 393.00 271.00 L 393.00 273.00 M 393.00 280.00 L 393.00 282.00 M 393.00 289.00 L 393.00 291.00 M 393.00 298.00 L 393.00 300.00 M 393.00 307.00 L 393.00 309.00 M 393.00 316.00 L 393.00 318.00 M 393.00 325.00 L 393.00 327.00 M 393.00 334.00 L 393.00 336.00 M 393.00 343.00 L 393.00 345.00 M 393.00 349.00 M 388.00 344.00 L 393.00 349.00 L 398.00 344.00" stroke="#0000ff" stroke-width="1.4" fill="none"/>
    <g>
      <text x="383.00" y="253.75" style="font-size:14px;font-style:normal;font-weight:normal;text-align:right;text-anchor:end;fill:#ffffff;fill-opacity:1;stroke:none;stroke-width:1px;stroke-linecap:butt;stroke-linejoin:miter;stroke-opacity:1;font-family:Bitstream Vera Sans">100%</text>
    </g>
    <g>
      <text x="383.00" y="253.75" style="font-size:14px;font-style:normal;font-weight:normal;text-align:right;text-anchor:end;fill:#0000ff;fill-opacity:1;stroke:none;stroke-width:1px;stroke-linecap:butt;stroke-linejoin:miter;stroke-opacity:1;font-family:Bitstream Vera Sans">100%</text>
    </g>
    <path d="M 393.20 397.00 L 393.80 469.00 M 388.76 464.04 L 393.80 469.00 L 398.76 463.96" stroke="#0080d1" stroke-width="1.4" fill="none"/>
    <g>
      <text x="383.57" y="445.50" style="font-size:14px;font-style:normal;font-weight:normal;text-align:right;text-anchor:end;fill:#ffffff;fill-opacity:1;stroke:none;stroke-width:1px;stroke-linecap:butt;stroke-linejoin:miter;stroke-opacity:1;font-family:Bitstream Vera Sans">1</text>
    </g>
    <g>
      <text x="383.57" y="445.50" style="font-size:14px;font-style:normal;font-weight:normal;text-align:right;text-anchor:end;fill:#0080d1;fill-opacity:1;stroke:none;stroke-width:1px;stroke-linecap:butt;stroke-linejoin:miter;stroke-opacity:1;font-family:Bitstream Vera Sans">1</text>
    </g>
    <path d="M 465.00 335.45 L 459.14 339.27 M 460.85 334.58 L 465.00 335.45 L 464.13 339.60 M 225.10 491.89 L 230.97 488.07 M 230.09 492.22 L 230.97 488.07 L 226.82 487.19" stroke="#ce0000" stroke-width="1.4" fill="none"/>
    <circle cx="205.00" cy="505.00" r="20.00" stroke="#8b0000" stroke-width="1.4" fill="#ffffff"/>
    <g>
      <text x="205.00" y="539.50" style="font-size:14px;font-style:normal;font-weight:normal;text-align:center;text-anchor:middle;fill:#8b0000;fill-opacity:1;stroke:none;stroke-width:1px;stroke-linecap:butt;stroke-linejoin:miter;stroke-opacity:1;font-family:Bitstream Vera Sans">Loss on Delivery</text>
    </g>
    <rect x="50.00" y="160.00" width="18.00" height="18.00" stroke="#008000" stroke-width="1.4" fill="#ffffff"/>
    <rect x="54.00" y="164.00" width="10.00" height="10.00" stroke="#008000" stroke-width="1.4" fill="#008000"/>
    <g>
      <text x="59.00" y="192.50" style="font-size:14px;font-style:normal;font-weight:normal;text-align:center;text-anchor:middle;fill:#008000;fill-opacity:1;stroke:none;stroke-width:1px;stroke-linecap:butt;stroke-linejoin:miter;stroke-opacity:1;font-family:Bitstream Vera Sans">EndStage</text>
    </g>
    <path d="M 105.69 278.00 L 104.31 387.00 M 99.37 381.94 L 104.31 387.00 L 109.37 382.07" stroke="#ce0000" stroke-width="1.4" fill="none"/>
    <g>
      <text x="94.31" y="391.37" style="font-size:14px;font-style:normal;font-weight:normal;text-align:right;text-anchor:end;fill:#ffffff;fill-opacity:1;stroke:none;stroke-width:1px;stroke-linecap:butt;stroke-linejoin:miter;stroke-opacity:1;font-family:Bitstream Vera Sans">1</text>
    </g>
    <g>
      <text x="94.31" y="391.37" style="font-size:14px;font-style:normal;font-weight:normal;text-align:right;text-anchor:end;fill:#ce0000;fill-opacity:1;stroke:none;stroke-width:1px;stroke-linecap:butt;stroke-linejoin:miter;stroke-opacity:1;font-family:Bitstream Vera Sans">1</text>
    </g>
    <circle cx="104.00" cy="411.00" r="20.00" stroke="#8b0000" stroke-width="1.4" fill="#ffffff"/>
    <g>
      <text x="104.00" y="445.50" style="font-size:14px;font-style:normal;font-weight:normal;text-align:center;text-anchor:middle;fill:#8b0000;fill-opacity:1;stroke:none;stroke-width:1px;stroke-linecap:butt;stroke-linejoin:miter;stroke-opacity:1;font-family:Bitstream Vera Sans">Loss in production</text>
    </g>
    <circle cx="120.00" cy="80.00" r="20.00" stroke="#008000" stroke-width="1.4" fill="#ffffff"/>
    <g>
      <text x="120.00" y="54.50" style="font-size:14px;font-style:normal;font-weight:normal;text-align:center;text-anchor:middle;fill:#008000;fill-opacity:1;stroke:none;stroke-width:1px;stroke-linecap:butt;stroke-linejoin:miter;stroke-opacity:1;font-family:Bitstream Vera Sans">PM generator</text>
    </g>
    <path d="M 269.58 163.63 L 269.58 126.37 L 300.63 145.00 L 269.58 163.63 M 282.00 126.37 L 282.00 163.63" stroke="#008000" stroke-width="1.4" fill="#ffffff"/>
    <path d="M 274.55 156.18 L 274.55 133.82 L 293.18 145.00 L 274.55 156.18 M 282.00 133.82 L 282.00 156.18" stroke="#008000" stroke-width="1.4" fill="#ffffff"/>
    <g>
      <text x="282.00" y="179.50" style="font-size:14px;font-style:normal;font-weight:normal;text-align:center;text-anchor:middle;fill:#008000;fill-opacity:1;stroke:none;stroke-width:1px;stroke-linecap:butt;stroke-linejoin:miter;stroke-opacity:1;font-family:Bitstream Vera Sans">Convertion</text>
    </g>
    <circle cx="201.00" cy="145.00" r="20.00" stroke="#008000" stroke-width="1.4" fill="#ffffff"/>
    <g>
      <text x="216.15" y="175.39" style="font-size:14px;font-style:normal;font-weight:normal;text-align:left;text-anchor:start;fill:#008000;fill-opacity:1;stroke:none;stroke-width:1px;stroke-linecap:butt;stroke-linejoin:miter;stroke-opacity:1;font-family:Bitstream Vera Sans">PM</text>
    </g>
    <path d="M 380.58 391.63 L 380.58 354.37 L 411.63 373.00 L 380.58 391.63 M 393.00 354.37 L 393.00 391.63" stroke="#0000ff" stroke-width="1.4" fill="#ffffff"/>
    <path d="M 385.55 384.18 L 385.55 361.82 L 404.18 373.00 L 385.55 384.18 M 393.00 361.82 L 393.00 384.18" stroke="#0000ff" stroke-width="1.4" fill="#ffffff"/>
    <g>
      <text x="393.00" y="407.50" style="font-size:14px;font-style:normal;font-weight:normal;text-align:center;text-anchor:middle;fill:#0000ff;fill-opacity:1;stroke:none;stroke-width:1px;stroke-linecap:butt;stroke-linejoin:miter;stroke-opacity:1;font-family:Bitstream Vera Sans">Transport</text>
    </g>
    <circle cx="394.00" cy="493.00" r="20.00" stroke="#0000ff" stroke-width="1.4" fill="#ffffff"/>
    <g>
      <text x="394.00" y="527.50" style="font-size:14px;font-style:normal;font-weight:normal;text-align:center;text-anchor:middle;fill:#0000ff;fill-opacity:1;stroke:none;stroke-width:1px;stroke-linecap:butt;stroke-linejoin:miter;stroke-opacity:1;font-family:Bitstream Vera Sans">to feed people</text>
    </g>
    <path d="M 378.10 224.00 L 393.00 238.90 L 407.90 224.00 L 393.00 209.10 L 378.10 224.00" stroke="#0000ff" stroke-width="1.4" fill="#ffffff"/>
    <g>
      <text x="407.40" y="215.80" style="font-size:15px;font-style:normal;font-weight:normal;text-align:center;text-anchor:middle;fill:#0000ff;fill-opacity:1;stroke:none;stroke-width:1px;stroke-linecap:butt;stroke-linejoin:miter;stroke-opacity:1;font-family:Bitstream Vera Sans">s</text>
    </g>
    <path d="M 387.88 226.25 L 387.88 229.73 L 398.12 229.73 L 398.12 226.25 L 394.69 226.25 L 394.38 220.47 S 395.87 219.55 395.05 217.75 S 392.10 216.81 391.21 217.80 S 391.13 219.96 391.82 220.47 L 391.41 226.25 L 390.44 226.25 L 390.44 225.48 L 388.70 225.48 L 388.65 226.25" fill="#0000ff"/>
    <circle cx="277.00" cy="368.00" r="20.00" stroke="#008000" stroke-width="1.4" fill="#ffffff"/>
    <g>
      <text x="307.00" y="372.50" style="font-size:14px;font-style:normal;font-weight:normal;text-align:left;text-anchor:start;fill:#008000;fill-opacity:1;stroke:none;stroke-width:1px;stroke-linecap:butt;stroke-linejoin:miter;stroke-opacity:1;font-family:Bitstream Vera Sans">Food</text>
    </g>
    <path d="M 291.39 348.79 L 292.59 347.19 M 296.79 341.59 L 297.98 339.99 M 302.18 334.39 L 303.38 332.79 M 307.58 327.18 L 308.78 325.58 M 312.97 319.98 L 314.17 318.38 M 318.37 312.78 L 319.57 311.18 M 322.35 307.47 M 323.83 305.62 L 325.08 304.06 M 329.45 298.60 L 330.71 297.04 M 335.08 291.57 L 336.33 290.01 M 340.71 284.55 L 341.96 282.99 M 346.34 277.53 L 347.59 275.97 M 351.97 270.51 L 353.22 268.94 M 357.59 263.48 L 358.85 261.92 M 360.47 259.90 M 361.24 266.93 L 360.47 259.90 L 353.44 260.68" stroke="#008000" stroke-width="1.4" fill="none"/>
    <g>
      <text x="340.69" y="273.08" style="font-size:14px;font-style:normal;font-weight:normal;text-align:right;text-anchor:end;fill:#ffffff;fill-opacity:1;stroke:none;stroke-width:1px;stroke-linecap:butt;stroke-linejoin:miter;stroke-opacity:1;font-family:Bitstream Vera Sans">-30%</text>
    </g>
    <g>
      <text x="340.69" y="273.08" style="font-size:14px;font-style:normal;font-weight:normal;text-align:right;text-anchor:end;fill:#008000;fill-opacity:1;stroke:none;stroke-width:1px;stroke-linecap:butt;stroke-linejoin:miter;stroke-opacity:1;font-family:Bitstream Vera Sans">-30%</text>
    </g>
    <path d="M 193.58 418.63 L 193.58 381.37 L 224.63 400.00 L 193.58 418.63 M 206.00 381.37 L 206.00 418.63" stroke="#8b0000" stroke-width="1.4" fill="#ffffff"/>
    <path d="M 198.55 411.18 L 198.55 388.82 L 217.18 400.00 L 198.55 411.18 M 206.00 388.82 L 206.00 411.18" stroke="#8b0000" stroke-width="1.4" fill="#ffffff"/>
    <path d="M 189.10 334.00 L 204.00 348.90 L 218.90 334.00 L 204.00 319.10 L 189.10 334.00" stroke="#8b0000" stroke-width="0.7" fill="#ffffff"/>
    <g>
      <text x="218.40" y="336.80" style="font-size:27px;font-style:normal;font-weight:normal;text-align:center;text-anchor:middle;fill:#8b0000;fill-opacity:1;stroke:none;stroke-width:1px;stroke-linecap:butt;stroke-linejoin:miter;stroke-opacity:1;font-family:Bitstream Vera Sans">*</text>
    </g>
    <path d="M 198.88 336.25 L 198.88 339.73 L 209.12 339.73 L 209.12 336.25 L 205.69 336.25 L 205.38 330.47 S 206.87 329.55 206.05 327.75 S 203.10 326.81 202.21 327.80 S 202.13 329.96 202.82 330.47 L 202.41 336.25 L 201.44 336.25 L 201.44 335.48 L 199.70 335.48 L 199.65 336.25" fill="#8b0000"/>
    <path d="M 200.56 169.00 L 200.53 171.00 M 200.40 177.99 L 200.36 179.99 M 200.24 186.99 L 200.20 188.99 M 200.07 195.99 L 200.04 197.99 M 200.00 200.00 M 202.08 204.54 L 202.91 206.36 M 205.83 212.72 L 206.66 214.54 M 209.58 220.90 L 210.41 222.72 M 213.33 229.08 L 214.16 230.90 M 217.08 237.26 L 217.91 239.08 M 220.83 245.44 L 221.66 247.26 M 224.58 253.63 L 225.41 255.44 M 228.33 261.81 L 229.16 263.63 M 232.08 269.99 L 232.91 271.81 M 235.83 278.17 L 236.66 279.99 M 239.58 286.35 L 240.41 288.17 M 243.33 294.53 L 244.16 296.35 M 247.08 302.72 L 247.91 304.53 M 250.83 310.90 L 251.66 312.72 M 254.58 319.08 L 255.41 320.90 M 258.33 327.26 L 259.16 329.08 M 262.08 335.44 L 262.91 337.26 M 265.83 343.62 L 266.66 345.44 M 267.00 346.18 M 260.37 343.72 L 267.00 346.18 L 269.46 339.55" stroke="#008000" stroke-width="1.4" fill="none"/>
    <g>
      <text x="229.14" y="292.08" style="font-size:14px;font-style:normal;font-weight:normal;text-align:right;text-anchor:end;fill:#ffffff;fill-opacity:1;stroke:none;stroke-width:1px;stroke-linecap:butt;stroke-linejoin:miter;stroke-opacity:1;font-family:Bitstream Vera Sans">+0.5/3</text>
    </g>
    <g>
      <text x="229.14" y="292.08" style="font-size:14px;font-style:normal;font-weight:normal;text-align:right;text-anchor:end;fill:#008000;fill-opacity:1;stroke:none;stroke-width:1px;stroke-linecap:butt;stroke-linejoin:miter;stroke-opacity:1;font-family:Bitstream Vera Sans">+0.5/3</text>
    </g>
    <rect x="468.00" y="165.00" width="184.00" height="217.00" stroke="#000000" stroke-width="0.7" fill="none"/>
    <path d="M 470.00 219.25 L 649.00 219.25 M 470.00 273.50 L 649.00 273.50 M 470.00 327.75 L 649.00 327.75 M 498.67 167.00 L 498.67 379.00 M 529.33 167.00 L 529.33 379.00 M 560.00 167.00 L 560.00 379.00 M 590.67 167.00 L 590.67 379.00 M 621.33 167.00 L 621.33 379.00" stroke="#000000" stroke-width="0.7" fill="none" stroke-dasharray="1,2"/>
    <path d="M 468.00 382.00 L 471.07 382.00 L 474.13 382.00 L 477.20 382.00 L 480.27 382.00 L 483.33 371.15 L 486.40 371.15 L 489.47 371.15 L 492.53 371.15 L 495.60 360.30 L 498.67 360.30 L 501.73 360.30 L 504.80 360.30 L 507.87 349.45 L 510.93 349.45 L 514.00 349.45 L 517.07 338.60 L 520.13 338.60 L 523.20 338.60 L 526.27 338.60 L 529.33 327.75 L 532.40 316.90 L 535.47 316.90 L 538.53 316.90 L 541.60 316.90 L 544.67 306.05 L 547.73 306.05 L 550.80 295.20 L 553.87 295.20 L 556.93 295.20 L 560.00 295.20 L 563.07 284.35 L 566.13 284.35 L 569.20 284.35 L 572.27 284.35 L 575.33 284.35 L 578.40 284.35 L 581.47 273.50 L 584.53 262.65 L 587.60 262.65 L 590.67 251.80 L 593.73 240.95 L 596.80 240.95 L 599.87 240.95 L 602.93 230.10 L 606.00 230.10 L 609.07 219.25 L 612.13 219.25 L 615.20 219.25 L 618.27 219.25 L 621.33 208.40 L 624.40 208.40 L 627.47 197.55" stroke="#8b0000" stroke-width="1.4" fill="none"/>
    <path d="M 468.00 382.00 L 471.07 382.00 L 474.13 382.00 L 477.20 382.00 L 480.27 382.00 L 483.33 382.00 L 486.40 382.00 L 489.47 382.00 L 492.53 371.15 L 495.60 371.15 L 498.67 371.15 L 501.73 371.15 L 504.80 360.30 L 507.87 360.30 L 510.93 360.30 L 514.00 360.30 L 517.07 360.30 L 520.13 360.30 L 523.20 360.30 L 526.27 360.30 L 529.33 349.45 L 532.40 349.45 L 535.47 349.45 L 538.53 349.45 L 541.60 349.45 L 544.67 338.60 L 547.73 338.60 L 550.80 338.60 L 553.87 338.60 L 556.93 327.75 L 560.00 327.75 L 563.07 327.75 L 566.13 327.75 L 569.20 327.75 L 572.27 316.90 L 575.33 316.90 L 578.40 316.90 L 581.47 316.90 L 584.53 295.20 L 587.60 295.20 L 590.67 295.20 L 593.73 295.20 L 596.80 295.20 L 599.87 295.20 L 602.93 284.35 L 606.00 284.35 L 609.07 284.35 L 612.13 284.35 L 615.20 284.35 L 618.27 273.50 L 621.33 262.65 L 624.40 262.65 L 627.47 262.65" stroke="#0000ff" stroke-width="1.4" fill="none"/>
    <path d="M 468.00 382.00 L 471.07 382.00 L 474.13 382.00 L 477.20 382.00 L 480.27 382.00 L 483.33 382.00 L 486.40 382.00 L 489.47 382.00 L 492.53 382.00 L 495.60 382.00 L 498.67 382.00 L 501.73 382.00 L 504.80 382.00 L 507.87 382.00 L 510.93 382.00 L 514.00 371.15 L 517.07 371.15 L 520.13 371.15 L 523.20 371.15 L 526.27 371.15 L 529.33 371.15 L 532.40 371.15 L 535.47 371.15 L 538.53 371.15 L 541.60 371.15 L 544.67 371.15 L 547.73 371.15 L 550.80 371.15 L 553.87 371.15 L 556.93 371.15 L 560.00 371.15 L 563.07 371.15 L 566.13 360.30 L 569.20 360.30 L 572.27 360.30 L 575.33 360.30 L 578.40 360.30 L 581.47 349.45 L 584.53 349.45 L 587.60 349.45 L 590.67 349.45 L 593.73 349.45 L 596.80 338.60 L 599.87 338.60 L 602.93 338.60 L 606.00 338.60 L 609.07 338.60 L 612.13 327.75 L 615.20 327.75 L 618.27 327.75 L 621.33 327.75 L 624.40 327.75 L 627.47 327.75" stroke="#ce0000" stroke-width="1.4" fill="none"/>
    <g>
      <text x="473.00" y="341.75" style="font-size:15px;font-style:normal;font-weight:normal;text-align:left;text-anchor:start;fill:#000000;fill-opacity:1;stroke:none;stroke-width:1px;stroke-linecap:butt;stroke-linejoin:miter;stroke-opacity:1;font-family:Bitstream Vera Sans">5</text>
    </g>
    <g>
      <text x="473.00" y="287.50" style="font-size:15px;font-style:normal;font-weight:normal;text-align:left;text-anchor:start;fill:#000000;fill-opacity:1;stroke:none;stroke-width:1px;stroke-linecap:butt;stroke-linejoin:miter;stroke-opacity:1;font-family:Bitstream Vera Sans">10</text>
    </g>
    <g>
      <text x="473.00" y="233.25" style="font-size:15px;font-style:normal;font-weight:normal;text-align:left;text-anchor:start;fill:#000000;fill-opacity:1;stroke:none;stroke-width:1px;stroke-linecap:butt;stroke-linejoin:miter;stroke-opacity:1;font-family:Bitstream Vera Sans">15</text>
    </g>
    <g>
      <text x="473.00" y="179.00" style="font-size:15px;font-style:normal;font-weight:normal;text-align:left;text-anchor:start;fill:#000000;fill-opacity:1;stroke:none;stroke-width:1px;stroke-linecap:butt;stroke-linejoin:miter;stroke-opacity:1;font-family:Bitstream Vera Sans">20</text>
    </g>
    <g>
      <text x="648.00" y="378.00" style="font-size:15px;font-style:normal;font-weight:normal;text-align:right;text-anchor:end;fill:#000000;fill-opacity:1;stroke:none;stroke-width:1px;stroke-linecap:butt;stroke-linejoin:miter;stroke-opacity:1;font-family:Bitstream Vera Sans">60 s</text>
    </g>
    <g>
      <text x="472.00" y="159.50" style="font-size:14px;font-style:normal;font-weight:normal;text-align:left;text-anchor:start;fill:#000000;fill-opacity:1;stroke:none;stroke-width:1px;stroke-linecap:butt;stroke-linejoin:miter;stroke-opacity:1;font-family:Bitstream Vera Sans">Loss &amp; Feed</text>
    </g>
    <path d="M 465.00 252.72 L 458.16 251.22 M 462.71 249.15 L 465.00 252.72 L 461.43 255.01 M 387.70 469.84 L 385.86 463.09 M 389.54 465.19 L 385.86 463.09 L 383.75 466.77" stroke="#0000ff" stroke-width="1.4" fill="none"/>
  </g>
</svg>